HIERARCHY
ROOT root
{
	OFFSET 0.000000 0.000000 0.000000
	CHANNELS 6 Xposition Yposition Zposition Zrotation Yrotation Xrotation
	JOINT lhip
	{
		OFFSET 0.058581 -0.082280 -0.017664
		CHANNELS 3 Zrotation Yrotation Xrotation
		JOINT lknee
		{
			OFFSET 0.043451 -0.386469 0.008037
			CHANNELS 3 Zrotation Yrotation Xrotation
			JOINT lankle
			{
				OFFSET -0.014790 -0.426874 -0.037428
				CHANNELS 3 Zrotation Yrotation Xrotation
				JOINT ltoe
				{
					OFFSET 0.041054 -0.060286 0.122042
					CHANNELS 3 Zrotation Yrotation Xrotation
					End Site
					{
						OFFSET 0.000000 0.000000 0.000000
					}
				}
			}
		}
	}
	JOINT rhip
	{
		OFFSET -0.060310 -0.090513 -0.013543
		CHANNELS 3 Zrotation Yrotation Xrotation
		JOINT rknee
		{
			OFFSET -0.043257 -0.383688 -0.004843
			CHANNELS 3 Zrotation Yrotation Xrotation
			JOINT rankle
			{
				OFFSET 0.019056 -0.420046 -0.034562
				CHANNELS 3 Zrotation Yrotation Xrotation
				JOINT rtoe
				{
					OFFSET -0.034840 -0.062106 0.130323
					CHANNELS 3 Zrotation Yrotation Xrotation
					End Site
					{
						OFFSET 0.000000 0.000000 0.000000
					}
				}
			}
		}
	}
	JOINT lowerback
	{
		OFFSET 0.004439 0.124404 -0.038385
		CHANNELS 3 Zrotation Yrotation Xrotation
		JOINT upperback
		{
			OFFSET 0.004488 0.137956 0.026820
			CHANNELS 3 Zrotation Yrotation Xrotation
			JOINT chest
			{
				OFFSET -0.002265 0.056032 0.002855
				CHANNELS 3 Zrotation Yrotation Xrotation
				JOINT lowerneck
				{
					OFFSET -0.013390 0.211636 -0.033468
					CHANNELS 3 Zrotation Yrotation Xrotation
					JOINT upperneck
					{
						OFFSET 0.010113 0.088937 0.050410
						CHANNELS 3 Zrotation Yrotation Xrotation
						End Site
						{
							OFFSET 0.000000 0.000000 0.000000
						}
					}
				}
				JOINT lclavicle
				{
					OFFSET 0.071702 0.114000 -0.018898
					CHANNELS 3 Zrotation Yrotation Xrotation
					JOINT lshoulder
					{
						OFFSET 0.122921 0.045205 -0.019046
						CHANNELS 3 Zrotation Yrotation Xrotation
						JOINT lelbow
						{
							OFFSET 0.255332 -0.015649 -0.022946
							CHANNELS 3 Zrotation Yrotation Xrotation
							JOINT lwrist
							{
								OFFSET 0.265709 0.012698 -0.007375
								CHANNELS 3 Zrotation Yrotation Xrotation
								End Site
								{
									OFFSET 0.000000 0.000000 0.000000
								}
							}
						}
					}
				}
				JOINT rclavicle
				{
					OFFSET -0.082954 0.112472 -0.023707
					CHANNELS 3 Zrotation Yrotation Xrotation
					JOINT rshoulder
					{
						OFFSET -0.113228 0.046853 -0.008472
						CHANNELS 3 Zrotation Yrotation Xrotation
						JOINT relbow
						{
							OFFSET -0.260127 -0.014369 -0.031269
							CHANNELS 3 Zrotation Yrotation Xrotation
							JOINT rwrist
							{
								OFFSET -0.269108 0.006794 -0.006027
								CHANNELS 3 Zrotation Yrotation Xrotation
								End Site
								{
									OFFSET 0.000000 0.000000 0.000000
								}
							}
						}
					}
				}
			}
		}
	}
}
MOTION
Frames: 7
Frame Time: 0.033333
0.730202 -0.651232 1.004713 27.305834 -1.728074 88.175969 -2.811671 -2.521481 0.408204 -2.438266 -10.605879 10.826427 2.390262 10.252646 -13.038523 0.000000 -0.000000 0.000000 2.311612 3.669144 -8.084903 -1.132974 3.690343 24.690307 0.743330 -8.056141 -16.640910 0.000000 -0.000000 0.000000 -0.903124 0.106050 13.343821 0.857449 1.136097 -1.383039 0.921329 -0.885423 4.699306 2.116011 10.875866 -9.436581 -4.215246 3.017655 7.419505 -26.967251 6.453686 -0.973450 -55.971222 -6.212427 10.003317 11.547239 -35.906798 3.170447 -1.445148 -3.877385 -7.406093 29.686978 0.791087 -2.085584 53.390530 8.613359 15.506005 -15.961003 27.647801 -11.443576 4.514895 1.990202 -8.384456 
0.731146 -0.647478 1.004789 28.187597 -1.360050 87.837290 -2.404635 -2.572320 0.862715 -2.508175 -11.197668 10.175521 2.625893 9.854308 -13.098780 0.000000 -0.000000 0.000000 2.478742 3.220546 -8.006704 -1.126292 3.314902 25.022738 0.879121 -8.030706 -16.487986 0.000000 -0.000000 0.000000 -0.861705 0.094488 13.740148 0.975289 0.876597 -1.211478 0.780361 -0.983527 4.579807 2.124904 10.568001 -7.623399 -4.173538 2.976605 8.469631 -26.915311 6.073948 -0.670629 -55.707187 -6.747519 9.730362 12.247661 -35.981737 2.200660 -1.269151 -3.661319 -7.721338 29.574368 1.244816 -1.734405 53.422443 8.581179 15.611511 -15.828226 27.947241 -10.791563 4.742449 2.041507 -7.922521 
0.730750 -0.642651 1.003805 28.574175 -1.215376 87.547896 -2.277607 -2.483357 1.199583 -2.506197 -11.413892 9.460728 3.003007 9.763883 -13.114050 0.000000 -0.000000 0.000000 2.212620 3.190321 -8.263394 -0.913104 2.572077 25.665950 1.255473 -7.688820 -16.703178 0.000000 -0.000000 0.000000 -1.053412 0.023658 14.026063 0.945776 0.894294 -1.123675 0.647883 -0.874092 4.482352 2.347967 10.465404 -4.754312 -4.132331 2.985506 10.754010 -26.513252 5.707290 -0.216636 -55.574024 -7.464737 9.501656 12.833558 -35.838991 1.150885 -1.426870 -3.308566 -8.131792 29.404203 1.632030 -1.173241 53.800216 9.088401 15.607668 -15.775345 27.692409 -10.597144 5.103992 2.021572 -7.788897 
0.729496 -0.637961 1.002552 28.904522 -1.019436 87.255192 -2.014350 -2.368051 1.491670 -2.587473 -11.772343 8.813413 3.416490 9.871488 -13.136384 0.000000 -0.000000 0.000000 1.948421 3.085900 -8.694437 -0.481820 2.368323 26.609421 1.498274 -7.092063 -16.665216 0.000000 -0.000000 0.000000 -1.194316 -0.001452 13.926440 1.090574 0.918835 -1.004768 0.451676 -0.804032 4.473259 2.765573 10.333586 -0.243989 -4.273408 3.030332 13.924879 -26.316003 5.672331 0.091950 -55.358642 -8.275074 9.359204 13.341935 -35.570192 0.385126 -1.691428 -2.869373 -8.325818 29.312557 1.688095 -0.612385 54.082707 9.957222 15.583507 -15.555436 27.016181 -10.445655 5.466639 1.715840 -7.777124 
0.727424 -0.633442 1.001520 29.288448 -0.876989 86.823183 -1.706641 -2.268353 1.770823 -2.714577 -12.142813 8.307958 3.769405 9.789700 -12.891074 0.000000 -0.000000 0.000000 1.567436 3.098649 -8.898406 0.005456 2.224665 27.359918 1.815012 -6.375849 -16.857125 0.000000 -0.000000 0.000000 -1.426258 0.010684 13.848866 1.349735 0.913237 -0.811147 0.195891 -0.810892 4.478269 3.168667 10.241351 5.282720 -4.345633 2.884207 17.730866 -26.056117 5.933679 0.540016 -55.284928 -9.184533 9.301471 14.133916 -35.557450 -0.401212 -2.194718 -2.515012 -8.369081 29.481683 1.511342 -0.321076 54.546363 10.970212 15.533369 -15.958639 25.925339 -10.650553 6.091710 1.725563 -7.775174 
0.724047 -0.628412 1.000874 29.559383 -0.819882 86.275934 -1.408678 -2.260017 1.871754 -3.002304 -12.424733 8.327361 3.962161 9.724070 -12.823671 0.000000 -0.000000 0.000000 1.084049 3.093676 -9.082877 0.421076 2.488003 28.477823 2.273767 -5.390120 -16.883259 0.000000 -0.000000 0.000000 -1.709961 0.143106 13.978419 1.523185 0.991762 -0.274404 -0.009616 -0.718443 4.714193 3.800549 9.943181 9.737244 -4.829081 2.857177 21.152410 -25.987023 6.427931 0.639533 -55.121425 -10.206317 9.122579 14.742891 -36.220168 -1.172177 -2.165285 -2.120405 -8.341372 29.749471 0.834323 -0.185396 54.679004 12.007024 15.466168 -16.171316 26.208154 -10.964074 6.252636 1.648382 -7.528786 
0.719778 -0.623398 1.000744 30.131156 -0.673599 85.701234 -1.192518 -2.416336 1.759436 -3.055767 -12.880495 8.806442 4.143470 9.772505 -12.724251 0.000000 -0.000000 0.000000 0.764203 3.134975 -9.079631 0.818794 3.112692 29.916045 2.523817 -4.567482 -17.786410 0.000000 -0.000000 0.000000 -1.722275 0.207322 14.148543 1.648219 0.952583 0.421601 -0.321240 -0.711157 5.001787 4.054919 9.578741 13.819919 -4.820233 2.661801 22.824861 -25.857498 6.740440 0.988605 -54.966841 -10.928613 8.838806 15.586068 -37.442219 -2.112301 -2.265289 -1.808971 -8.886728 30.045128 0.417811 0.200978 54.834854 12.710270 15.228411 -16.817920 26.947618 -11.305636 6.469404 1.672267 -7.333105 
